# xmcd CD database file
#
# Track frame offsets:
#	150
#	21805
#	38042
#	56723
#	78454
#
# Disc length: 1261 seconds
#
# Revision: 0
# Processed by: cddbd v1.5.2PL0 Copyright (c) Steve Scherf et al.
# Submitted via: CDex 1.70beta3
#
DISCID=3604eb05
DTITLE=ROOKiEZ is PUNK'D - コンプリケイション
DYEAR=1900
DGENRE=ロック
TTITLE0=コンプリケイション
TTITLE1=Fortune
TTITLE2=BUMP ON da STYLE
TTITLE3=コンプリケイション -instrumental-
TTITLE4=Fortune -instrumental-
EXTD=
EXTT0=
EXTT1=
EXTT2=
EXTT3=
EXTT4=
PLAYORDER=
